<?xml version="1.0" encoding="UTF-8"?>
<svg id="Layer_1" data-name="Layer 1" xmlns="http://www.w3.org/2000/svg" viewBox="0 0 1200 1200">
  <path d="M496.8,1109.82c10.96,2.87,22.38,1.3,32.15-4.42,119.55-69.91,222.89-145.12,307.17-223.55,77.21-71.85,138.73-146.63,182.87-222.26,40.47-69.36,66.02-138.77,75.92-206.3,9.19-62.68,4.76-122.01-13.18-176.36-16.93-51.3-46.48-95.9-85.46-128.98-39-33.11-85.69-53.15-135.02-57.95-43.71-4.25-88.45,3.98-132.97,24.45-45.57,20.96-88.8,53.79-128.5,97.58l-7.53,8.31-7.8-8.06c-80.66-83.39-163.02-126-238.27-123.26l-1.15.05c-91.38,3.87-173.66,63.31-214.71,155.11-80.4,179.78-8.15,464.77,334.5,696.2,9.4,6.38,20.71,8.7,31.84,6.55,11.14-2.15,20.76-8.5,27.11-17.9,6.33-9.38,8.63-20.68,6.47-31.79-2.16-11.12-8.52-20.73-17.91-27.07-76.35-51.56-140.81-107.33-191.6-165.75-45.59-52.44-80.32-107.12-103.22-162.52-38.89-94.08-42.43-190-9.71-263.16,14.45-32.3,34.09-57.84,58.39-75.9,24.23-18,51.94-27.79,82.38-29.08,33.05-1.4,67.1,7.66,101.22,26.94,39.05,22.07,77.07,57.13,112.99,104.21,8.11,10.61,20.93,16.84,34.28,16.66,13.36-.18,26-6.75,33.82-17.59,35-48.61,73.37-84.28,114.05-106.01,30.3-16.19,61.02-24.35,91.54-24.35,5.52,0,11.04.27,16.54.8,33.18,3.23,64.1,16.35,89.43,37.96,26.44,22.56,46.19,53.21,58.69,91.09,13.5,40.91,16.48,89.23,8.62,139.75-8.95,57.56-31.4,117.23-66.72,177.35-39.91,67.94-95.86,135.53-166.3,200.87-78.97,73.26-176.74,144.17-290.6,210.75-9.78,5.72-16.74,14.9-19.61,25.86-2.87,10.96-1.3,22.37,4.42,32.14,5.72,9.78,14.9,16.75,25.86,19.62Z"/>
</svg>