<?xml version="1.0" encoding="UTF-8"?>
<svg id="Layer_1" data-name="Layer 1" xmlns="http://www.w3.org/2000/svg" viewBox="0 0 1200 1200">
  <path d="M600,37.55c-143.76,0-281.65,57.11-383.31,158.77-101.66,101.66-158.77,239.54-158.77,383.31s57.11,281.65,158.77,383.31c101.66,101.66,239.54,158.77,383.31,158.77s281.65-57.11,383.31-158.77c101.66-101.66,158.77-239.54,158.77-383.31,0-95.15-25.05-188.63-72.62-271.04-47.58-82.41-116.01-150.84-198.41-198.41-82.41-47.57-175.88-72.62-271.04-72.62h0ZM600,1049.42c-124.6,0-244.09-49.5-332.19-137.61-88.1-88.11-137.61-207.6-137.61-332.19s49.5-244.09,137.61-332.19c88.11-88.1,207.6-137.61,332.19-137.61s244.09,49.5,332.19,137.61c88.1,88.11,137.61,207.6,137.61,332.19s-49.5,244.09-137.61,332.19c-88.11,88.1-207.6,137.61-332.19,137.61ZM697.57,677.55c2.32-2.21,4.27-4.77,5.78-7.59l180.69-325.25c5.13-9.22,5.97-20.22,2.31-30.11-3.66-9.89-11.46-17.69-21.35-21.35-9.89-3.66-20.89-2.82-30.11,2.31l-325.25,180.69c-2.82,1.51-5.38,3.46-7.59,5.78-2.32,2.21-4.27,4.77-5.78,7.59l-180.69,325.25c-3.91,6.87-5.46,14.82-4.42,22.66,1.04,7.83,4.63,15.11,10.2,20.71,6.82,6.76,16.05,10.54,25.66,10.48,6.21-.02,12.31-1.64,17.71-4.7l325.25-180.69c2.82-1.51,5.38-3.46,7.59-5.78h0ZM663.97,592.63l-76.97-76.97,173.1-96.13-96.12,173.1ZM536.03,566.61l76.97,76.97-173.1,96.13,96.12-173.1ZM997.53,579.62c0,105.43-41.88,206.54-116.43,281.09-74.55,74.55-175.66,116.43-281.09,116.43-12.91,0-24.84-6.89-31.3-18.07-6.46-11.18-6.46-24.96,0-36.14,6.46-11.18,18.39-18.07,31.3-18.07,86.26,0,168.99-34.27,229.99-95.26,60.99-60.99,95.26-143.73,95.26-229.99,0-12.91,6.89-24.84,18.07-31.3,11.18-6.46,24.96-6.46,36.14,0,11.18,6.46,18.07,18.39,18.07,31.3h0ZM274.76,579.62c0,12.91-6.89,24.84-18.07,31.3-11.18,6.46-24.96,6.46-36.14,0-11.18-6.46-18.07-18.39-18.07-31.3,0-105.43,41.88-206.54,116.43-281.09,74.55-74.55,175.66-116.43,281.09-116.43,12.91,0,24.84,6.89,31.3,18.07,6.46,11.18,6.46,24.96,0,36.14s-18.39,18.07-31.3,18.07c-86.26,0-168.99,34.27-229.99,95.26-60.99,60.99-95.26,143.73-95.26,229.99h0Z"/>
</svg>