<?xml version="1.0" encoding="UTF-8"?>
<svg id="Layer_1" data-name="Layer 1" xmlns="http://www.w3.org/2000/svg" viewBox="0 0 32 32">
  <defs>
    <style>
      .cls-1 {
        fill: #2c2c2c;
      }

      .cls-2 {
        fill: #a3624a;
      }

      .cls-3 {
        fill: #d2df50;
      }
    </style>
  </defs>
  <rect class="cls-1" width="32" height="32"/>
  <circle class="cls-2" cx="16.02" cy="12.22" r="5.91"/>
  <path class="cls-3" d="M24.63,13.14c0,.25,0,6.48-8.63,14.99C7.37,20,7.37,13.14,7.37,13.14v-.63c0-4.76,3.86-8.63,8.63-8.63s8.63,3.86,8.63,8.63v.63ZM18.64,8.8c-.89-.27-1.96.67-2.65,1.21-.68-.53-1.75-1.47-2.65-1.2-1.46.44-2.14,1.99-1.69,3.45.02.07.06.19.06.19,0,0,.89,2.92,4.29,4.61,3.43-1.81,4.26-4.54,4.28-4.62,0,0,.04-.13.06-.19.44-1.46-.24-3.01-1.7-3.45h0Z"/>
</svg>